<svg width="17" height="16" viewBox="0 0 17 16" fill="none" xmlns="http://www.w3.org/2000/svg">
<g clip-path="url(#clip0_129_604)">
<g clip-path="url(#clip1_129_604)">
<g clip-path="url(#clip2_129_604)">
<path d="M7.95938 2.19157C8.24975 1.2519 9.57985 1.2519 9.87022 2.19157L10.8216 5.27039C10.9511 5.6894 11.3385 5.97515 11.7771 5.97515H14.9585C15.915 5.97515 16.3257 7.18913 15.5656 7.7698L12.9068 9.80092C12.5738 10.0553 12.4347 10.4904 12.5584 10.8909L13.5534 14.1106C13.8409 15.0408 12.7646 15.7916 11.9909 15.2005L9.52186 13.3143C9.16346 13.0405 8.66614 13.0405 8.30774 13.3143L5.83869 15.2005C5.065 15.7916 3.98875 15.0408 4.2762 14.1106L5.27116 10.8909C5.39489 10.4904 5.25583 10.0553 4.9228 9.80092L2.26403 7.7698C1.50392 7.18913 1.91456 5.97515 2.87109 5.97515H6.05255C6.4911 5.97515 6.87849 5.6894 7.00797 5.27039L7.95938 2.19157Z" fill="#E0BC00"/>
</g>
</g>
</g>
<defs>
<clipPath id="clip0_129_604">
<rect width="16" height="15" fill="white" transform="translate(0.915039 0.599609)"/>
</clipPath>
<clipPath id="clip1_129_604">
<rect width="16" height="15" fill="white" transform="translate(0.915039 0.599609)"/>
</clipPath>
<clipPath id="clip2_129_604">
<rect width="16" height="15" fill="white" transform="translate(0.915039 0.599609)"/>
</clipPath>
</defs>
</svg>
